# xmcd
#
# Track frame offsets: 
#        150
#        17091
#        34282
#        49574
#        68754
#        86082
#        102732
#        118862
#        136577
#        153077
#        171387
#        190479
#        204875
#        218576
#        236174
#        253506
#        268084
#        287489
#        304657
#
# Disc length: 4288 seconds
#
# Revision: 1
# Processed by: cddbd v1.5.2PL0 Copyright (c) Steve Scherf et al.
# Submitted via: ExactAudioCopy v1.0b3
#
DISCID=0e10be13
DTITLE=Matthias Reim - All the Best CD 2
DYEAR=2012
DGENRE=Pop
TTITLE0=Idion (Version 2003) [mit Michelle]
TTITLE1=Und tschüss
TTITLE2=Mayday Mayday
TTITLE3=Ich l iebe Dich
TTITLE4=Herzensmasochist
TTITLE5=Träumer
TTITLE6=Vergiss es (Forget it)
TTITLE7=Jedes Bild von Dir
TTITLE8=Ich bin nicht verliebt (unverwundbar)
TTITLE9=Egal, was soll's
TTITLE10=Wie man liebt
TTITLE11=Verdammt ich hab' nix
TTITLE12=Unberechenbar
TTITLE13=Rock 'n Roll
TTITLE14=Ich will gar nichts von Dir
TTITLE15=Wahre Engel
TTITLE16=Ich schau jetzt mal im Himmel nach
TTITLE17=I miss you (Ich vermiss' Dich)
TTITLE18=Sowieso (Für Dich das Letzte) [Club Mix]
EXTD=
EXTT0=
EXTT1=
EXTT2=
EXTT3=
EXTT4=
EXTT5=
EXTT6=
EXTT7=
EXTT8=
EXTT9=
EXTT10=
EXTT11=
EXTT12=
EXTT13=
EXTT14=
EXTT15=
EXTT16=
EXTT17=
EXTT18=
PLAYORDER=
